<svg width="18" height="18" viewBox="0 0 18 18" fill="none" xmlns="http://www.w3.org/2000/svg">
<mask id="mask0_2489_53456" style="mask-type:alpha" maskUnits="userSpaceOnUse" x="0" y="0" width="18" height="18">
<rect width="18" height="18" fill="#D9D9D9"/>
</mask>
<g mask="url(#mask0_2489_53456)">
<path d="M9.00023 12.4904C9.15968 12.4904 9.29324 12.4364 9.40093 12.3286C9.50862 12.2207 9.56246 12.0871 9.56246 11.9276C9.56246 11.7682 9.50854 11.6346 9.40069 11.5269C9.29283 11.4192 9.15918 11.3654 8.99974 11.3654C8.84029 11.3654 8.70672 11.4193 8.59903 11.5272C8.49134 11.635 8.4375 11.7687 8.4375 11.9281C8.4375 12.0876 8.49143 12.2211 8.59928 12.3288C8.70714 12.4365 8.84079 12.4904 9.00023 12.4904ZM9.00023 9.56246C9.15968 9.56246 9.29324 9.50854 9.40093 9.40069C9.50862 9.29283 9.56246 9.15918 9.56246 8.99974C9.56246 8.84029 9.50854 8.70672 9.40069 8.59903C9.29283 8.49134 9.15918 8.4375 8.99974 8.4375C8.84029 8.4375 8.70672 8.49143 8.59903 8.59928C8.49134 8.70714 8.4375 8.84079 8.4375 9.00023C8.4375 9.15968 8.49143 9.29324 8.59928 9.40093C8.70714 9.50862 8.84079 9.56246 9.00023 9.56246ZM9.00023 6.63459C9.15968 6.63459 9.29324 6.58066 9.40093 6.4728C9.50862 6.36494 9.56246 6.23129 9.56246 6.07185C9.56246 5.91241 9.50854 5.77884 9.40069 5.67114C9.29283 5.56346 9.15918 5.50961 8.99974 5.50961C8.84029 5.50961 8.70672 5.56354 8.59903 5.67141C8.49134 5.77926 8.4375 5.91291 8.4375 6.07236C8.4375 6.23179 8.49143 6.36536 8.59928 6.47306C8.70714 6.58075 8.84079 6.63459 9.00023 6.63459ZM14.7692 14.625H3.23078C2.85794 14.625 2.53877 14.4922 2.27327 14.2267C2.00776 13.9612 1.875 13.642 1.875 13.2692V10.8029C2.30193 10.7212 2.65866 10.5118 2.94519 10.1747C3.23173 9.83773 3.375 9.44614 3.375 8.99998C3.375 8.55382 3.23173 8.16223 2.94519 7.82522C2.65866 7.48819 2.30193 7.27881 1.875 7.19707V4.73078C1.875 4.35794 2.00776 4.03877 2.27327 3.77327C2.53877 3.50776 2.85794 3.375 3.23078 3.375H14.7692C15.142 3.375 15.4612 3.50776 15.7267 3.77327C15.9922 4.03877 16.125 4.35794 16.125 4.73078V7.19707C15.698 7.27881 15.3413 7.48819 15.0548 7.82522C14.7682 8.16223 14.625 8.55382 14.625 8.99998C14.625 9.44614 14.7682 9.83773 15.0548 10.1747C15.3413 10.5118 15.698 10.7212 16.125 10.8029V13.2692C16.125 13.642 15.9922 13.9612 15.7267 14.2267C15.4612 14.4922 15.142 14.625 14.7692 14.625ZM14.7692 13.5C14.8365 13.5 14.8918 13.4783 14.9351 13.4351C14.9783 13.3918 15 13.3365 15 13.2692V11.5875C14.5375 11.3125 14.1719 10.9469 13.9031 10.4906C13.6344 10.0344 13.5 9.53748 13.5 8.99998C13.5 8.46248 13.6344 7.96561 13.9031 7.50936C14.1719 7.05311 14.5375 6.68748 15 6.41248V4.73078C15 4.66346 14.9783 4.60817 14.9351 4.56489C14.8918 4.52162 14.8365 4.49998 14.7692 4.49998H3.23078C3.16346 4.49998 3.10817 4.52162 3.06489 4.56489C3.02162 4.60817 2.99998 4.66346 2.99998 4.73078V6.41248C3.46248 6.68748 3.82811 7.05311 4.09686 7.50936C4.36561 7.96561 4.49998 8.46248 4.49998 8.99998C4.49998 9.53748 4.36561 10.0344 4.09686 10.4906C3.82811 10.9469 3.46248 11.3125 2.99998 11.5875V13.2692C2.99998 13.3365 3.02162 13.3918 3.06489 13.4351C3.10817 13.4783 3.16346 13.5 3.23078 13.5H14.7692Z" fill="#DCAF26"/>
</g>
</svg>
