<svg width="16" height="16" viewBox="0 0 16 16" fill="none" xmlns="http://www.w3.org/2000/svg">
<mask id="mask0_2394_50538" style="mask-type:alpha" maskUnits="userSpaceOnUse" x="0" y="0" width="16" height="16">
<rect width="16" height="16" fill="#D9D9D9"/>
</mask>
<g mask="url(#mask0_2394_50538)">
<path d="M10.4 13.7273V12.4545H12.8V6.09091H4.4V8.63636H3.2V3.54545C3.2 3.19545 3.3175 2.89583 3.5525 2.64659C3.7875 2.39735 4.07 2.27273 4.4 2.27273H5V1H6.2V2.27273H11V1H12.2V2.27273H12.8C13.13 2.27273 13.4125 2.39735 13.6475 2.64659C13.8825 2.89583 14 3.19545 14 3.54545V12.4545C14 12.8045 13.8825 13.1042 13.6475 13.3534C13.4125 13.6027 13.13 13.7273 12.8 13.7273H10.4ZM5 15L5.9 14.0455L4.32031 12.4545H6.905H9.2V11.1818H4.32031L5.9 9.59091L5 8.63636L2 11.8182L5 15ZM4.4 4.81818H12.8V3.54545H4.4V4.81818Z" fill="white"/>
</g>
</svg>
