<svg width="18" height="18" viewBox="0 0 18 18" fill="none" xmlns="http://www.w3.org/2000/svg">
<path d="M14.25 15V13.875M3.75 15V13.875" stroke="#27338C" stroke-linecap="round"/>
<path d="M15.75 9C15.75 6.17175 15.75 4.75725 14.871 3.879C13.9927 3 12.5782 3 9.75 3H8.25C5.42175 3 4.00725 3 3.129 3.879C2.25 4.75725 2.25 6.17175 2.25 9M1.5 11.25C1.5 10.551 1.5 10.2015 1.614 9.92625C1.68938 9.74414 1.79992 9.57866 1.93929 9.43929C2.07866 9.29992 2.24414 9.18938 2.42625 9.114C2.7015 9 3.051 9 3.75 9H14.25C14.949 9 15.2985 9 15.5737 9.114C15.7559 9.18938 15.9213 9.29992 16.0607 9.43929C16.2001 9.57866 16.3106 9.74414 16.386 9.92625C16.5 10.2015 16.5 10.551 16.5 11.25C16.5 11.949 16.5 12.2985 16.386 12.5737C16.3106 12.7559 16.2001 12.9213 16.0607 13.0607C15.9213 13.2001 15.7559 13.3106 15.5737 13.386C15.2985 13.5 14.949 13.5 14.25 13.5H3.75C3.051 13.5 2.7015 13.5 2.42625 13.386C2.24414 13.3106 2.07866 13.2001 1.93929 13.0607C1.79992 12.9213 1.68938 12.7559 1.614 12.5737C1.5 12.2985 1.5 11.949 1.5 11.25Z" stroke="#27338C"/>
<path d="M13.875 9V7.875C13.875 6.4605 13.875 5.754 13.4355 5.3145C12.996 4.875 12.2895 4.875 10.875 4.875H7.125C5.7105 4.875 5.004 4.875 4.5645 5.3145C4.125 5.754 4.125 6.4605 4.125 7.875V9M9 5.25V9" stroke="#27338C"/>
</svg>
