<svg width="16" height="16" viewBox="0 0 16 16" fill="none" xmlns="http://www.w3.org/2000/svg">
<path d="M12.6663 13.3359V12.3359M3.33301 13.3359V12.3359" stroke="white" stroke-linecap="round"/>
<path d="M13.9997 8.0013C13.9997 5.4873 13.9997 4.22997 13.2183 3.4493C12.4377 2.66797 11.1803 2.66797 8.66634 2.66797H7.33301C4.81901 2.66797 3.56167 2.66797 2.78101 3.4493C1.99967 4.22997 1.99967 5.4873 1.99967 8.0013M1.33301 10.0013C1.33301 9.37997 1.33301 9.0693 1.43434 8.82464C1.50135 8.66276 1.5996 8.51567 1.72349 8.39178C1.84738 8.2679 1.99446 8.16964 2.15634 8.10264C2.40101 8.0013 2.71167 8.0013 3.33301 8.0013H12.6663C13.2877 8.0013 13.5983 8.0013 13.843 8.10264C14.0049 8.16964 14.152 8.2679 14.2759 8.39178C14.3997 8.51567 14.498 8.66276 14.565 8.82464C14.6663 9.0693 14.6663 9.37997 14.6663 10.0013C14.6663 10.6226 14.6663 10.9333 14.565 11.178C14.498 11.3398 14.3997 11.4869 14.2759 11.6108C14.152 11.7347 14.0049 11.833 13.843 11.9C13.5983 12.0013 13.2877 12.0013 12.6663 12.0013H3.33301C2.71167 12.0013 2.40101 12.0013 2.15634 11.9C1.99446 11.833 1.84738 11.7347 1.72349 11.6108C1.5996 11.4869 1.50135 11.3398 1.43434 11.178C1.33301 10.9333 1.33301 10.6226 1.33301 10.0013Z" stroke="white"/>
<path d="M12.3327 8.0026V7.0026C12.3327 5.74527 12.3327 5.11727 11.942 4.7266C11.5513 4.33594 10.9233 4.33594 9.66602 4.33594H6.33268C5.07535 4.33594 4.44735 4.33594 4.05668 4.7266C3.66602 5.11727 3.66602 5.74527 3.66602 7.0026V8.0026M7.99935 4.66927V8.0026" stroke="white"/>
</svg>
