<svg width="69" height="69" viewBox="0 0 69 69" fill="none" xmlns="http://www.w3.org/2000/svg">
<g filter="url(#filter0_d_1254_79404)">
<circle cx="34.5" cy="31.5" r="27.5" fill="url(#paint0_linear_1254_79404)"/>
<circle cx="34.5" cy="31.5" r="28.5" stroke="#3D50C8" stroke-width="2"/>
</g>
<path d="M28.9095 46.6365C29.6627 46.6365 30.2732 46.0259 30.2732 45.2728C30.2732 44.5197 29.6627 43.9092 28.9095 43.9092C28.1564 43.9092 27.5459 44.5197 27.5459 45.2728C27.5459 46.0259 28.1564 46.6365 28.9095 46.6365Z" stroke="white" stroke-linecap="round" stroke-linejoin="round"/>
<path d="M43.9095 46.6365C44.6627 46.6365 45.2732 46.0259 45.2732 45.2728C45.2732 44.5197 44.6627 43.9092 43.9095 43.9092C43.1564 43.9092 42.5459 44.5197 42.5459 45.2728C42.5459 46.0259 43.1564 46.6365 43.9095 46.6365Z" stroke="white" stroke-linecap="round" stroke-linejoin="round"/>
<path d="M18 18H23.4545L27.1091 36.2591C27.2338 36.8869 27.5753 37.4509 28.0739 37.8522C28.5725 38.2536 29.1964 38.4668 29.8364 38.4545H43.0909C43.7309 38.4668 44.3548 38.2536 44.8533 37.8522C45.3519 37.4509 45.6935 36.8869 45.8182 36.2591L48 24.8182H24.8182" stroke="white" stroke-linecap="round" stroke-linejoin="round"/>
<path d="M36.5908 27.8135V35.7957" stroke="white" stroke-linecap="round" stroke-linejoin="round"/>
<path d="M32.6006 31.8037H40.5828" stroke="white" stroke-linecap="round" stroke-linejoin="round"/>
<defs>
<filter id="filter0_d_1254_79404" x="0" y="0" width="69" height="69" filterUnits="userSpaceOnUse" color-interpolation-filters="sRGB">
<feFlood flood-opacity="0" result="BackgroundImageFix"/>
<feColorMatrix in="SourceAlpha" type="matrix" values="0 0 0 0 0 0 0 0 0 0 0 0 0 0 0 0 0 0 127 0" result="hardAlpha"/>
<feOffset dy="3"/>
<feGaussianBlur stdDeviation="2.5"/>
<feColorMatrix type="matrix" values="0 0 0 0 0 0 0 0 0 0 0 0 0 0 0 0 0 0 0.25 0"/>
<feBlend mode="normal" in2="BackgroundImageFix" result="effect1_dropShadow_1254_79404"/>
<feBlend mode="normal" in="SourceGraphic" in2="effect1_dropShadow_1254_79404" result="shape"/>
</filter>
<linearGradient id="paint0_linear_1254_79404" x1="4.8124" y1="32.0212" x2="187.104" y2="29.9379" gradientUnits="userSpaceOnUse">
<stop stop-color="#344EF0"/>
<stop offset="0.270833" stop-color="#041A80"/>
<stop offset="0.552083" stop-color="#344EF0"/>
<stop offset="0.776042" stop-color="#01177A"/>
</linearGradient>
</defs>
</svg>
