<svg width="14" height="15" viewBox="0 0 14 15" fill="none" xmlns="http://www.w3.org/2000/svg">
<mask id="mask0_2394_12075" style="mask-type:alpha" maskUnits="userSpaceOnUse" x="0" y="0" width="14" height="15">
<rect y="0.5" width="14" height="14" fill="#D9D9D9"/>
</mask>
<g mask="url(#mask0_2394_12075)">
<path d="M1.16667 12.75C0.845833 12.75 0.571181 12.6358 0.342708 12.4073C0.114236 12.1788 0 11.9042 0 11.5833V3.41667C0 3.09583 0.114236 2.82118 0.342708 2.59271C0.571181 2.36424 0.845833 2.25 1.16667 2.25H12.8333C13.1542 2.25 13.4288 2.36424 13.6573 2.59271C13.8858 2.82118 14 3.09583 14 3.41667V11.5833C14 11.9042 13.8858 12.1788 13.6573 12.4073C13.4288 12.6358 13.1542 12.75 12.8333 12.75H1.16667ZM9.275 11.5833H12.8333V3.41667H1.16667V11.5833H1.225C1.63333 10.8542 2.19722 10.283 2.91667 9.86979C3.63611 9.4566 4.41389 9.25 5.25 9.25C6.08611 9.25 6.86389 9.4566 7.58333 9.86979C8.30278 10.283 8.86667 10.8542 9.275 11.5833ZM5.25 8.66667C5.73611 8.66667 6.14931 8.49653 6.48958 8.15625C6.82986 7.81597 7 7.40278 7 6.91667C7 6.43056 6.82986 6.01736 6.48958 5.67708C6.14931 5.33681 5.73611 5.16667 5.25 5.16667C4.76389 5.16667 4.35069 5.33681 4.01042 5.67708C3.67014 6.01736 3.5 6.43056 3.5 6.91667C3.5 7.40278 3.67014 7.81597 4.01042 8.15625C4.35069 8.49653 4.76389 8.66667 5.25 8.66667ZM11.0833 11L12.25 9.83333L11.375 8.66667H10.4125C10.3542 8.49167 10.3056 8.30451 10.2667 8.10521C10.2278 7.9059 10.2083 7.70417 10.2083 7.5C10.2083 7.29583 10.2278 7.09896 10.2667 6.90938C10.3056 6.71979 10.3542 6.52778 10.4125 6.33333H11.375L12.25 5.16667L11.0833 4C10.5583 4.40833 10.1354 4.92604 9.81458 5.55312C9.49375 6.18021 9.33333 6.82917 9.33333 7.5C9.33333 8.17083 9.49375 8.81979 9.81458 9.44688C10.1354 10.074 10.5583 10.5917 11.0833 11ZM2.65417 11.5833H7.84583C7.51528 11.2139 7.12396 10.9271 6.67188 10.7229C6.21979 10.5188 5.74583 10.4167 5.25 10.4167C4.75417 10.4167 4.28264 10.5188 3.83542 10.7229C3.38819 10.9271 2.99444 11.2139 2.65417 11.5833ZM5.25 7.5C5.08472 7.5 4.94618 7.4441 4.83437 7.33229C4.72257 7.22049 4.66667 7.08194 4.66667 6.91667C4.66667 6.75139 4.72257 6.61285 4.83437 6.50104C4.94618 6.38924 5.08472 6.33333 5.25 6.33333C5.41528 6.33333 5.55382 6.38924 5.66563 6.50104C5.77743 6.61285 5.83333 6.75139 5.83333 6.91667C5.83333 7.08194 5.77743 7.22049 5.66563 7.33229C5.55382 7.4441 5.41528 7.5 5.25 7.5Z" fill="#2C3588"/>
</g>
</svg>
