<svg width="18" height="18" viewBox="0 0 18 18" fill="none" xmlns="http://www.w3.org/2000/svg">
<mask id="mask0_2489_53440" style="mask-type:alpha" maskUnits="userSpaceOnUse" x="0" y="0" width="18" height="18">
<rect width="18" height="18" fill="#D9D9D9"/>
</mask>
<g mask="url(#mask0_2489_53440)">
<path d="M12.9375 16.3121V14.0621H10.6875V12.9371H12.9375V10.6871H14.0625V12.9371H16.3125V14.0621H14.0625V16.3121L12.9375 16.3121ZM3.98078 14.6246C3.60193 14.6246 3.28125 14.4933 3.01875 14.2308C2.75625 13.9683 2.625 13.6477 2.625 13.2688V4.73039C2.625 4.35154 2.75625 4.03087 3.01875 3.76837C3.28125 3.50587 3.60193 3.37462 3.98078 3.37462H5.01924V1.78809H6.17306V3.37462H10.3557V1.78809H11.4807V3.37462H12.5192C12.898 3.37462 13.2187 3.50587 13.4812 3.76837C13.7437 4.03087 13.875 4.35154 13.875 4.73039V9.16115C13.6875 9.13807 13.5 9.12654 13.3125 9.12654C13.125 9.12654 12.9375 9.13807 12.75 9.16115V7.73039H3.74998V13.2688C3.74998 13.3265 3.77402 13.3794 3.82209 13.4275C3.87018 13.4756 3.92308 13.4996 3.98078 13.4996H9.10817C9.10817 13.6871 9.11971 13.8746 9.14278 14.0621C9.16586 14.2496 9.20816 14.4371 9.2697 14.6246H3.98078ZM3.74998 6.60541H12.75V4.73039C12.75 4.67269 12.7259 4.6198 12.6779 4.57171C12.6298 4.52364 12.5769 4.4996 12.5192 4.4996H3.98078C3.92308 4.4996 3.87018 4.52364 3.82209 4.57171C3.77402 4.6198 3.74998 4.67269 3.74998 4.73039V6.60541Z" fill="#27338C"/>
</g>
</svg>
