<svg width="14" height="15" viewBox="0 0 14 15" fill="none" xmlns="http://www.w3.org/2000/svg">
<g id="phone-outgoing">
<path id="Vector" d="M12.8331 10.3704V12.1204C12.8337 12.2828 12.8005 12.4436 12.7354 12.5925C12.6703 12.7414 12.5748 12.875 12.4551 12.9848C12.3354 13.0946 12.1941 13.1782 12.0402 13.2303C11.8863 13.2823 11.7232 13.3017 11.5614 13.287C9.76641 13.092 8.04217 12.4786 6.52726 11.4962C5.11782 10.6006 3.92287 9.40565 3.02726 7.99622C2.04141 6.47442 1.4279 4.7418 1.23642 2.93872C1.22185 2.7774 1.24102 2.61483 1.29272 2.46133C1.34441 2.30783 1.42751 2.16678 1.5367 2.04716C1.6459 1.92754 1.77881 1.83196 1.92697 1.76652C2.07513 1.70108 2.23529 1.6672 2.39726 1.66705H4.14726C4.43035 1.66426 4.7048 1.76451 4.91945 1.94911C5.1341 2.13371 5.2743 2.39006 5.31392 2.67038C5.38779 3.23042 5.52477 3.78031 5.72226 4.30955C5.80074 4.51834 5.81773 4.74525 5.7712 4.9634C5.72468 5.18154 5.61659 5.38178 5.45976 5.54038L4.71892 6.28122C5.54933 7.74162 6.75852 8.95081 8.21892 9.78122L8.95976 9.04038C9.11836 8.88355 9.3186 8.77546 9.53674 8.72894C9.75489 8.68241 9.9818 8.6994 10.1906 8.77788C10.7198 8.97537 11.2697 9.11235 11.8298 9.18622C12.1131 9.22619 12.3719 9.36892 12.5569 9.58725C12.7419 9.80559 12.8402 10.0843 12.8331 10.3704Z" stroke="#00B501" stroke-linecap="round" stroke-linejoin="round"/>
</g>
</svg>
