<svg width="30" height="30" viewBox="0 0 30 30" fill="none" xmlns="http://www.w3.org/2000/svg">
<circle cx="15" cy="15" r="15" fill="#FEF7EA"/>
<mask id="mask0_2557_55728" style="mask-type:alpha" maskUnits="userSpaceOnUse" x="0" y="0" width="30" height="30">
<circle cx="15" cy="15" r="15" fill="#D9D9D9"/>
</mask>
<g mask="url(#mask0_2557_55728)">
<mask id="mask1_2557_55728" style="mask-type:alpha" maskUnits="userSpaceOnUse" x="3" y="3" width="24" height="24">
<rect x="3" y="3" width="24" height="24" fill="#D9D9D9"/>
</mask>
<g mask="url(#mask1_2557_55728)">
<path d="M15.1866 19.9211L23.4943 11.6134C23.5391 11.5685 23.5616 11.514 23.5616 11.4499C23.5616 11.3858 23.5391 11.3313 23.4943 11.2864L22.5212 10.3134C22.4763 10.2685 22.4219 10.2461 22.3577 10.2461C22.2936 10.2461 22.2391 10.2685 22.1943 10.3134L13.8866 18.6211L15.1866 19.9211ZM8.91158 21.7307C7.42442 21.6473 6.30777 21.3166 5.56163 20.7384C4.81547 20.1602 4.44238 19.3422 4.44238 18.2845C4.44238 17.2717 4.86738 16.4503 5.71738 15.8201C6.56738 15.19 7.74879 14.8083 9.26161 14.6749C9.98854 14.6121 10.5337 14.4807 10.8972 14.2807C11.2607 14.0807 11.4424 13.8038 11.4424 13.4499C11.4424 12.9589 11.1966 12.5842 10.7049 12.3259C10.2132 12.0675 9.40715 11.882 8.28663 11.7691L8.42316 10.2788C9.96032 10.4249 11.0978 10.7564 11.8356 11.273C12.5735 11.7897 12.9424 12.5153 12.9424 13.4499C12.9424 14.2435 12.6375 14.8727 12.0279 15.3374C11.4183 15.8021 10.5334 16.0813 9.37316 16.1749C8.22956 16.2711 7.37186 16.4941 6.80006 16.8441C6.22826 17.1941 5.94236 17.6743 5.94236 18.2845C5.94236 18.9063 6.1805 19.3688 6.65678 19.672C7.13307 19.9753 7.90518 20.1615 8.97313 20.2307L8.91158 21.7307ZM15.4212 21.8095L11.9982 18.3865L21.3366 9.05764C21.6315 8.76278 21.976 8.61695 22.3702 8.62017C22.7645 8.62337 23.109 8.76919 23.4039 9.05764L24.75 10.4038C25.0449 10.6986 25.1923 11.0448 25.1923 11.4422C25.1923 11.8397 25.0449 12.1858 24.75 12.4807L15.4212 21.8095ZM12.0808 22.4999C11.8552 22.5537 11.6565 22.4948 11.4847 22.323C11.3129 22.1512 11.2539 21.9525 11.3078 21.7268L11.9982 18.3865L15.4212 21.8095L12.0808 22.4999Z" fill="#EF9400"/>
</g>
</g>
</svg>
