<svg width="30" height="30" viewBox="0 0 30 30" fill="none" xmlns="http://www.w3.org/2000/svg">
<circle cx="15" cy="15" r="15" fill="#EBF7EE"/>
<mask id="mask0_2557_52807" style="mask-type:alpha" maskUnits="userSpaceOnUse" x="0" y="0" width="30" height="30">
<circle cx="15" cy="15" r="15" fill="#D9D9D9"/>
</mask>
<g mask="url(#mask0_2557_52807)">
<mask id="mask1_2557_52807" style="mask-type:alpha" maskUnits="userSpaceOnUse" x="3" y="3" width="24" height="24">
<rect x="3" y="3" width="24" height="24" fill="#D9D9D9"/>
</mask>
<g mask="url(#mask1_2557_52807)">
<path d="M7 24V19.75L20.175 6.6C20.375 6.4 20.6 6.25 20.85 6.15C21.1 6.05 21.35 6 21.6 6C21.8667 6 22.1208 6.05 22.3625 6.15C22.6042 6.25 22.8167 6.4 23 6.6L24.4 8C24.6 8.18333 24.75 8.39583 24.85 8.6375C24.95 8.87917 25 9.13333 25 9.4C25 9.65 24.95 9.9 24.85 10.15C24.75 10.4 24.6 10.625 24.4 10.825L11.25 24H7ZM9 22H10.4L20.225 12.2L19.525 11.475L18.8 10.775L9 20.6V22ZM19.525 11.475L18.8 10.775L20.225 12.2L19.525 11.475ZM17 24C18.2333 24 19.375 23.6917 20.425 23.075C21.475 22.4583 22 21.6 22 20.5C22 19.9 21.8417 19.3833 21.525 18.95C21.2083 18.5167 20.7833 18.1417 20.25 17.825L18.775 19.3C19.1583 19.4667 19.4583 19.65 19.675 19.85C19.8917 20.05 20 20.2667 20 20.5C20 20.8833 19.6958 21.2292 19.0875 21.5375C18.4792 21.8458 17.7833 22 17 22C16.7167 22 16.4792 22.0958 16.2875 22.2875C16.0958 22.4792 16 22.7167 16 23C16 23.2833 16.0958 23.5208 16.2875 23.7125C16.4792 23.9042 16.7167 24 17 24ZM7.575 16.35L9.075 14.85C8.74167 14.7167 8.47917 14.5792 8.2875 14.4375C8.09583 14.2958 8 14.15 8 14C8 13.8 8.15 13.6 8.45 13.4C8.75 13.2 9.38333 12.8917 10.35 12.475C11.8167 11.8417 12.7917 11.2667 13.275 10.75C13.7583 10.2333 14 9.65 14 9C14 8.08333 13.6333 7.35417 12.9 6.8125C12.1667 6.27083 11.2 6 10 6C9.25 6 8.57917 6.13333 7.9875 6.4C7.39583 6.66667 6.94167 6.99167 6.625 7.375C6.44167 7.59167 6.36667 7.83333 6.4 8.1C6.43333 8.36667 6.55833 8.58333 6.775 8.75C6.99167 8.93333 7.23333 9.00833 7.5 8.975C7.76667 8.94167 7.99167 8.83333 8.175 8.65C8.40833 8.41667 8.66667 8.25 8.95 8.15C9.23333 8.05 9.58333 8 10 8C10.6833 8 11.1875 8.1 11.5125 8.3C11.8375 8.5 12 8.73333 12 9C12 9.23333 11.8542 9.44583 11.5625 9.6375C11.2708 9.82917 10.6 10.1667 9.55 10.65C8.21667 11.2333 7.29167 11.7625 6.775 12.2375C6.25833 12.7125 6 13.3 6 14C6 14.5333 6.14167 14.9875 6.425 15.3625C6.70833 15.7375 7.09167 16.0667 7.575 16.35Z" fill="#3EBE61"/>
</g>
</g>
</svg>
