<svg width="26" height="26" viewBox="0 0 26 26" fill="none" xmlns="http://www.w3.org/2000/svg">
<g id="stylus_note">
<mask id="mask0_2394_32998" style="mask-type:alpha" maskUnits="userSpaceOnUse" x="0" y="0" width="26" height="26">
<rect id="Bounding box" x="0.5" y="0.5" width="25" height="25" fill="#D9D9D9"/>
</mask>
<g mask="url(#mask0_2394_32998)">
<path id="stylus_note_2" d="M13.1953 18.1273L21.8491 9.47347C21.8959 9.42671 21.9193 9.36995 21.9193 9.30318C21.9193 9.23641 21.8959 9.17965 21.8491 9.13289L20.8355 8.1193C20.7888 8.07255 20.732 8.04917 20.6652 8.04917C20.5985 8.04917 20.5417 8.07255 20.495 8.1193L11.8411 16.7731L13.1953 18.1273ZM6.65883 20.0123C5.1097 19.9255 3.94653 19.5809 3.1693 18.9786C2.39205 18.3764 2.00342 17.5243 2.00342 16.4226C2.00342 15.3676 2.44613 14.5119 3.33154 13.8555C4.21696 13.1991 5.44759 12.8015 7.02344 12.6626C7.78067 12.5971 8.34858 12.4602 8.72719 12.2519C9.1058 12.0436 9.29511 11.7551 9.29511 11.3865C9.29511 10.875 9.03903 10.4847 8.52688 10.2156C8.01473 9.94653 7.17505 9.75322 6.00784 9.6357L6.15006 8.08326C7.75127 8.2355 8.93616 8.58071 9.70472 9.11891C10.4733 9.6571 10.8576 10.413 10.8576 11.3865C10.8576 12.2132 10.54 12.8685 9.90503 13.3526C9.27003 13.8367 8.34824 14.1275 7.13964 14.225C5.94839 14.3252 5.05495 14.5576 4.45933 14.9222C3.8637 15.2867 3.56589 15.7869 3.56589 16.4226C3.56589 17.0703 3.81396 17.5521 4.31008 17.8679C4.80621 18.1837 5.6105 18.3777 6.72295 18.4498L6.65883 20.0123ZM13.4397 20.0944L9.87402 16.5288L19.6015 6.81123C19.9087 6.50407 20.2676 6.35217 20.6783 6.35552C21.0889 6.35886 21.4478 6.51076 21.755 6.81123L23.1572 8.21344C23.4643 8.52059 23.6179 8.88117 23.6179 9.29516C23.6179 9.70915 23.4643 10.0697 23.1572 10.3769L13.4397 20.0944ZM9.96014 20.8136C9.7251 20.8696 9.51811 20.8082 9.33915 20.6293C9.16021 20.4503 9.09878 20.2433 9.15488 20.0083L9.87402 16.5288L13.4397 20.0944L9.96014 20.8136Z" fill="#494B50"/>
</g>
</g>
</svg>
