<svg width="15" height="16" viewBox="0 0 15 16" fill="none" xmlns="http://www.w3.org/2000/svg">
<path d="M1.98078 15.1246C1.60193 15.1246 1.28125 14.9933 1.01875 14.7308C0.75625 14.4683 0.625 14.1477 0.625 13.7688V3.73039C0.625 3.35154 0.75625 3.03087 1.01875 2.76837C1.28125 2.50587 1.60193 2.37462 1.98078 2.37462H3.01924V0.788086H4.17306V2.37462H9.85574V0.788086H10.9807V2.37462H12.0192C12.398 2.37462 12.7187 2.50587 12.9812 2.76837C13.2437 3.03087 13.375 3.35154 13.375 3.73039V7.48039H12.25V6.73039H1.74998V13.7688C1.74998 13.8265 1.77402 13.8794 1.82209 13.9275C1.87018 13.9756 1.92308 13.9996 1.98078 13.9996H6.94229V15.1246H1.98078ZM1.74998 5.60541H12.25V3.73039C12.25 3.67269 12.2259 3.6198 12.1779 3.57171C12.1298 3.52364 12.0769 3.4996 12.0192 3.4996H1.98078C1.92308 3.4996 1.87018 3.52364 1.82209 3.57171C1.77402 3.6198 1.74998 3.67269 1.74998 3.73039V5.60541ZM8.58653 15.1246V13.1429L12.6582 9.08999C12.7514 8.99672 12.8524 8.9311 12.961 8.89311C13.0697 8.85514 13.1783 8.83615 13.287 8.83615C13.4033 8.83615 13.517 8.85826 13.6281 8.90249C13.7392 8.94672 13.8389 9.01307 13.9274 9.10152L14.6211 9.80249C14.7019 9.89575 14.7644 9.99671 14.8086 10.1054C14.8528 10.214 14.875 10.3227 14.875 10.4313C14.875 10.54 14.8548 10.6505 14.8144 10.7631C14.774 10.8755 14.7096 10.9784 14.6211 11.0717L10.5682 15.1246H8.58653ZM9.48074 14.2304H10.1932L12.6279 11.7842L12.2831 11.4279L11.9341 11.076L9.48074 13.5179V14.2304ZM12.2831 11.4279L11.9341 11.076L12.6279 11.7842L12.2831 11.4279Z" fill="#27338C"/>
</svg>
