<svg width="39" height="39" viewBox="0 0 39 39" fill="none" xmlns="http://www.w3.org/2000/svg">
<ellipse cx="19.4968" cy="19.5" rx="19.4968" ry="19.5" fill="#E9E9EB"/>
<g clip-path="url(#clip0_1296_51256)">
<path d="M23.208 10.4689C23.1496 9.28106 22.1681 8.33594 20.9657 8.33594H19.0807C17.8783 8.33594 16.8968 9.28106 16.8384 10.4689V14.2616H23.208V10.4689Z" fill="#DCAF27"/>
<path d="M23.3738 10.5403C27.085 12.2129 28.2738 16.9042 25.807 20.1424L25.6314 20.4048L24.7022 22.3575H16.7428L14.375 20.318L14.2391 20.1424C13.358 18.9858 12.9434 17.6438 12.9434 16.3201C12.9434 13.9382 14.2867 11.6157 16.6723 10.5403C17.7379 10.0603 18.8805 9.82031 20.023 9.82031C21.1656 9.82031 22.3082 10.0603 23.3738 10.5403Z" fill="#DCAF27"/>
<path d="M22.9059 10.347C22.4385 11.7376 21.6386 12.9838 20.5852 13.9826L14.6715 20.5734L14.375 20.318L14.2391 20.1424C13.358 18.9858 12.9434 17.6438 12.9434 16.3201C12.9434 13.9382 14.2867 11.6157 16.6723 10.5403C17.7379 10.0603 18.8805 9.82031 20.023 9.82031C20.9999 9.82031 21.9772 9.99588 22.9059 10.347Z" fill="#DCAF27"/>
<path d="M24.9809 17.4112C23.673 16.0244 22.2041 14.8874 20.5852 13.9834C20.2145 14.3355 19.812 14.6563 19.3814 14.9425L15.1813 17.7329C14.657 18.0812 14.3521 18.6775 14.3763 19.3069L14.516 22.9397C14.5729 24.4129 15.2066 25.732 16.1946 26.6831C17.1826 27.6338 18.5251 28.2165 19.9997 28.2165C22.9484 28.2165 25.3699 25.8861 25.4834 22.9397L25.63 19.1337C25.6543 18.4959 25.4189 17.8758 24.9809 17.4112Z" fill="white"/>
<path d="M14.2423 12.4641C14.3892 12.59 14.6102 12.5732 14.7361 12.4264C15.3064 11.7617 16.0063 11.2396 16.8164 10.8745C18.6012 10.0702 20.6158 9.97038 22.4577 10.5748C21.8228 12.236 20.6717 13.6793 19.188 14.665L18.9487 14.824C18.7876 14.9311 18.7438 15.1484 18.8508 15.3095C18.9182 15.411 19.0294 15.4659 19.1428 15.4659C19.2094 15.4659 19.2767 15.447 19.3363 15.4074L19.5756 15.2484C19.9485 15.0006 20.302 14.7261 20.6336 14.4282C22.1471 15.3015 23.5232 16.3894 24.7265 17.6656C25.099 18.0609 25.3009 18.5963 25.2802 19.1345L25.177 21.8163C25.1696 22.0096 25.3202 22.1723 25.5135 22.1797C25.5181 22.1799 25.5226 22.18 25.5272 22.18C25.7144 22.18 25.8696 22.0319 25.8769 21.8432L25.9242 20.6124L26.0924 20.3611C27.6197 18.3498 27.8838 15.686 26.7814 13.4063C26.6971 13.2323 26.4879 13.1593 26.3136 13.2436C26.1395 13.3278 26.0666 13.5372 26.1508 13.7113C27.0198 15.5083 26.9402 17.5717 25.9759 19.2681L25.9801 19.1615C26.0079 18.4367 25.7367 17.7164 25.236 17.1853C24.0314 15.9076 22.6598 14.8117 21.1545 13.9217C22.0019 13.0315 22.6721 11.9761 23.1124 10.8235C23.1517 10.8404 23.191 10.857 23.23 10.8746C24.0644 11.2506 24.781 11.7925 25.3599 12.4852C25.4291 12.5681 25.5286 12.6108 25.6288 12.6108C25.708 12.6108 25.7876 12.5841 25.8532 12.5293C26.0016 12.4053 26.0214 12.1844 25.8973 12.0361C25.2544 11.2669 24.4604 10.6645 23.5369 10.245C23.3654 8.96959 22.2764 8 20.9657 8H19.0807C17.7701 8 16.681 8.96955 16.5095 10.2449C15.6132 10.6521 14.8377 11.2324 14.2045 11.9704C14.0786 12.1171 14.0955 12.3382 14.2423 12.4641ZM19.0807 8.7004H20.9657C21.777 8.7004 22.4717 9.20927 22.7408 9.93148C20.9786 9.33749 19.0675 9.33754 17.3053 9.93157C17.5744 9.20932 18.2694 8.7004 19.0807 8.7004Z" fill="#2C3588"/>
<path d="M15.3754 18.0381L18.046 16.264C18.2071 16.157 18.2509 15.9396 18.1439 15.7785C18.0368 15.6174 17.8195 15.5736 17.6584 15.6806L14.9879 17.4548C14.4071 17.8405 14.0476 18.4942 14.026 19.1866C13.6825 18.5592 13.4526 17.8753 13.3528 17.1707C13.3257 16.9792 13.148 16.846 12.9568 16.8731C12.7654 16.9003 12.6321 17.0775 12.6593 17.2691C12.8178 18.3879 13.2678 19.4599 13.9621 20.3713L14.0717 20.5129L14.1661 22.9667C14.1916 23.6311 14.3279 24.2792 14.5712 24.8931C14.6257 25.0306 14.7574 25.1144 14.8969 25.1144C14.9398 25.1144 14.9834 25.1065 15.0258 25.0897C15.2057 25.0185 15.2936 24.8149 15.2224 24.6352C15.0084 24.0951 14.8885 23.5247 14.866 22.9398L14.7262 19.307C14.7068 18.8032 14.9556 18.317 15.3754 18.0381Z" fill="#2C3588"/>
<path d="M28.9221 31.4198C27.6059 29.911 25.7989 28.8682 23.834 28.4837L23.1333 28.3466V27.6682C23.6057 27.3676 24.0374 26.9978 24.4123 26.5655C24.539 26.4194 24.5232 26.1982 24.3771 26.0716C24.2311 25.9448 24.0098 25.9605 23.8831 26.1067C22.9056 27.234 21.4902 27.8805 19.9998 27.8805C18.3821 27.8805 16.8914 27.1411 15.9098 25.852C15.7927 25.6982 15.5729 25.6682 15.419 25.7855C15.2651 25.9027 15.2353 26.1224 15.3525 26.2763C15.7801 26.8379 16.293 27.3073 16.8663 27.6731V28.3466L16.1657 28.4838C14.2008 28.8683 12.3937 29.911 11.0775 31.4198C10.9503 31.5656 10.9655 31.7868 11.1112 31.9139C11.1776 31.9718 11.2596 32.0003 11.3413 32.0003C11.4389 32.0003 11.5361 31.9596 11.6053 31.8803C12.8198 30.4881 14.4872 29.526 16.3003 29.1711L17.1976 28.9955C17.4115 28.9536 17.5667 28.7649 17.5667 28.5469V28.0548C18.3171 28.3982 19.1427 28.581 19.9998 28.581C20.8497 28.581 21.6781 28.3959 22.4329 28.0497V28.5469C22.4329 28.7649 22.5881 28.9536 22.8022 28.9956L23.6994 29.1711C25.5124 29.526 27.1798 30.4881 28.3943 31.8803C28.4635 31.9596 28.5606 32.0003 28.6583 32.0003C28.74 32.0003 28.822 31.9719 28.8884 31.9139C29.0342 31.7867 29.0493 31.5655 28.9221 31.4198Z" fill="#2C3588"/>
<path d="M11.8036 14.9543C12.2336 15.1277 12.5253 15.4165 12.6955 15.8371C12.7783 16.042 12.974 16.1777 13.1939 16.1828C13.1982 16.1829 13.2025 16.1829 13.2067 16.1829C13.422 16.1829 13.6182 16.0572 13.7087 15.8598C13.9085 15.4248 14.2276 15.1238 14.6842 14.9397C14.8873 14.8578 15.0193 14.6714 15.0286 14.4531C15.038 14.2339 14.9218 14.0358 14.7254 13.9363C14.2773 13.7093 13.9501 13.3915 13.7252 12.9646C13.6226 12.7699 13.4222 12.6579 13.2039 12.6698C12.9858 12.6826 12.8014 12.8176 12.7227 13.0222C12.5628 13.4374 12.2576 13.7369 11.7896 13.9377C11.5854 14.0254 11.4551 14.2257 11.4576 14.448C11.46 14.6718 11.5959 14.8706 11.8036 14.9543ZM13.2532 13.5415C13.485 13.8943 13.7858 14.1871 14.1518 14.4161C13.7566 14.627 13.4425 14.923 13.2139 15.3C13.0101 14.9338 12.7213 14.6462 12.3513 14.4407C12.7489 14.2164 13.0508 13.9154 13.2532 13.5415Z" fill="#2C3588"/>
<path d="M24.1736 24.8306C24.4985 24.9616 24.7188 25.1796 24.8472 25.497C24.9239 25.6867 25.1051 25.8123 25.309 25.817C25.3129 25.8171 25.3169 25.8172 25.3208 25.8172C25.5203 25.8172 25.7019 25.7008 25.7859 25.518C25.9376 25.1876 26.1802 24.9589 26.5274 24.8189C26.7156 24.7431 26.8379 24.5703 26.8466 24.368C26.8552 24.1679 26.745 23.98 26.5659 23.8892C26.5658 23.8892 26.5658 23.8892 26.5658 23.8892C26.2213 23.7147 25.97 23.4706 25.7973 23.143C25.7037 22.9654 25.5134 22.8581 25.3143 22.8701C25.1122 22.882 24.9413 23.0071 24.8684 23.1965C24.7479 23.5095 24.5165 23.7358 24.1609 23.8885C23.9716 23.9698 23.8507 24.1556 23.8531 24.3616C23.8554 24.569 23.9812 24.7531 24.1736 24.8306ZM25.3631 23.7681C25.5217 23.9866 25.7149 24.1747 25.9409 24.331C25.6944 24.4801 25.4898 24.673 25.329 24.9078C25.1859 24.6836 25.0007 24.4988 24.7749 24.3547C25.0206 24.198 25.2172 24.0019 25.3631 23.7681Z" fill="#2C3588"/>
</g>
<defs>
<clipPath id="clip0_1296_51256">
<rect width="24" height="24" fill="white" transform="translate(8 8)"/>
</clipPath>
</defs>
</svg>
