<svg width="14" height="14" viewBox="0 0 14 14" fill="none" xmlns="http://www.w3.org/2000/svg">
<g id="solar:user-id-linear">
<g id="Group">
<path id="Vector" d="M5.24967 6.41927C5.89401 6.41927 6.41634 5.89694 6.41634 5.2526C6.41634 4.60827 5.89401 4.08594 5.24967 4.08594C4.60534 4.08594 4.08301 4.60827 4.08301 5.2526C4.08301 5.89694 4.60534 6.41927 5.24967 6.41927Z" stroke="white"/>
<path id="Vector_2" d="M7.58268 8.7526C7.58268 9.39719 7.58268 9.91927 5.24935 9.91927C2.91602 9.91927 2.91602 9.39719 2.91602 8.7526C2.91602 8.10802 3.96018 7.58594 5.24935 7.58594C6.53852 7.58594 7.58268 8.10802 7.58268 8.7526Z" stroke="white"/>
<path id="Vector_3" d="M1.16602 7.0026C1.16602 4.80285 1.16602 3.70269 1.84968 3.0196C2.53277 2.33594 3.63293 2.33594 5.83268 2.33594H8.16602C10.3658 2.33594 11.4659 2.33594 12.149 3.0196C12.8327 3.70269 12.8327 4.80285 12.8327 7.0026C12.8327 9.20235 12.8327 10.3025 12.149 10.9856C11.4659 11.6693 10.3658 11.6693 8.16602 11.6693H5.83268C3.63293 11.6693 2.53277 11.6693 1.84968 10.9856C1.16602 10.3025 1.16602 9.20235 1.16602 7.0026Z" stroke="white"/>
<path id="Vector_4" d="M11.0827 7H8.74935M11.0827 5.25H8.16602M11.0827 8.75H9.33268" stroke="white" stroke-linecap="round"/>
</g>
</g>
</svg>
