<svg width="12" height="16" viewBox="0 0 12 16" fill="none" xmlns="http://www.w3.org/2000/svg">
<path d="M6.0013 7.89901C6.37449 7.89901 6.69353 7.76614 6.95843 7.50039C7.22333 7.23464 7.35578 6.91517 7.35578 6.54198C7.35578 6.16879 7.22291 5.84975 6.95716 5.58485C6.69141 5.31995 6.37194 5.1875 5.99875 5.1875C5.62556 5.1875 5.30652 5.32038 5.04162 5.58613C4.77672 5.85188 4.64427 6.17134 4.64427 6.54453C4.64427 6.91772 4.77715 7.23676 5.0429 7.50166C5.30865 7.76656 5.62811 7.89901 6.0013 7.89901ZM6.00003 13.6351C7.46733 12.3216 8.59016 11.0618 9.36854 9.85552C10.1469 8.64927 10.5361 7.59278 10.5361 6.68604C10.5361 5.31874 10.1017 4.1947 9.23296 3.31393C8.36421 2.43315 7.28656 1.99276 6.00003 1.99276C4.71349 1.99276 3.63585 2.43315 2.7671 3.31393C1.89835 4.1947 1.46397 5.31874 1.46397 6.68604C1.46397 7.59278 1.85315 8.64927 2.63151 9.85552C3.40989 11.0618 4.53273 12.3216 6.00003 13.6351ZM6.00003 15.1322C4.11254 13.4966 2.69716 11.9745 1.75388 10.5658C0.81062 9.1572 0.338989 7.86392 0.338989 6.68604C0.338989 4.95529 0.898845 3.55409 2.01856 2.48246C3.13826 1.41082 4.46541 0.875 6.00003 0.875C7.53464 0.875 8.86179 1.41082 9.98149 2.48246C11.1012 3.55409 11.6611 4.95529 11.6611 6.68604C11.6611 7.86392 11.1894 9.1572 10.2462 10.5658C9.3029 11.9745 7.88751 13.4966 6.00003 15.1322Z" fill="#27338C"/>
</svg>
