<svg width="20" height="17" viewBox="0 0 20 17" fill="none" xmlns="http://www.w3.org/2000/svg">
<path fill-rule="evenodd" clip-rule="evenodd" d="M9.86592 9.75453C9.94701 9.75152 10.0285 9.75 10.1103 9.75C10.1921 9.75 10.2736 9.75152 10.3547 9.75453C11.8322 9.63049 12.9927 8.39195 12.9927 6.88237C12.9927 5.29048 11.7022 4 10.1103 4C8.51841 4 7.22793 5.29048 7.22793 6.88237C7.22793 8.39195 8.38841 9.63049 9.86592 9.75453ZM7.96049 10.1157C6.91606 9.41988 6.22793 8.23149 6.22793 6.88237C6.22793 4.7382 7.96612 3 10.1103 3C12.2545 3 13.9927 4.7382 13.9927 6.88237C13.9927 8.23149 13.3045 9.41988 12.2601 10.1157C13.8461 10.6742 15.149 11.8332 15.8958 13.3198C16.0575 13.6416 15.8085 14.0001 15.4484 14.0001C15.2435 14.0001 15.0598 13.8783 14.9651 13.6966C14.0908 12.0182 12.3715 10.8501 10.3713 10.7561C10.285 10.7618 10.198 10.7647 10.1103 10.7647C10.0226 10.7647 9.93558 10.7618 9.84933 10.7561C7.8491 10.85 6.12983 12.0182 5.25545 13.6966C5.16079 13.8783 4.97707 14.0001 4.7722 14.0001C4.41204 14.0001 4.16307 13.6416 4.32475 13.3198C5.07156 11.8332 6.37448 10.6742 7.96049 10.1157ZM14.7691 10.4011C14.8493 10.3957 14.9302 10.393 15.0118 10.393C16.5383 10.393 17.8402 11.355 18.344 12.7059H19.3956C19.0063 11.3292 17.9858 10.2174 16.6665 9.70283C17.4185 9.17912 17.9106 8.30821 17.9106 7.32236C17.9106 5.72137 16.6128 4.42352 15.0118 4.42352C14.9301 4.42352 14.8491 4.4269 14.7691 4.43353V5.43888C14.8486 5.42874 14.9296 5.42352 15.0118 5.42352C16.0605 5.42352 16.9106 6.27366 16.9106 7.32236C16.9106 8.37106 16.0605 9.2212 15.0118 9.2212C14.9296 9.2212 14.8486 9.21597 14.7691 9.20584V10.4011ZM5.2088 10.393C5.29035 10.393 5.37126 10.3957 5.45144 10.4011V9.20584C5.37199 9.21597 5.291 9.2212 5.2088 9.2212C4.1601 9.2212 3.30996 8.37106 3.30996 7.32236C3.30996 6.27366 4.1601 5.42352 5.2088 5.42352C5.291 5.42352 5.37199 5.42874 5.45144 5.43888V4.43353C5.37144 4.4269 5.29051 4.42352 5.2088 4.42352C3.60781 4.42352 2.30996 5.72137 2.30996 7.32236C2.30996 8.30821 2.80208 9.17912 3.55407 9.70283C2.2348 10.2174 1.21434 11.3292 0.824951 12.7059H1.87658C2.38044 11.355 3.68227 10.393 5.2088 10.393Z" fill="#27338C"/>
</svg>
