<svg width="21" height="20" viewBox="0 0 21 20" fill="none" xmlns="http://www.w3.org/2000/svg">
<mask id="mask0_75_52992" style="mask-type:alpha" maskUnits="userSpaceOnUse" x="0" y="0" width="21" height="20">
<rect x="0.5" width="20" height="20" fill="#D9D9D9"/>
</mask>
<g mask="url(#mask0_75_52992)">
<path d="M10.896 14.0212L17.8752 7.04199L16.7918 5.95866L9.81266 12.9378L10.896 14.0212ZM5.4585 15.8337C4.06961 15.7642 3.03489 15.4725 2.35433 14.9587C1.67377 14.4448 1.3335 13.7017 1.3335 12.7295C1.3335 11.8267 1.70502 11.0941 2.44808 10.5316C3.19114 9.96908 4.22239 9.63227 5.54183 9.52116C6.0835 9.47949 6.48975 9.39269 6.76058 9.26074C7.03141 9.1288 7.16683 8.94477 7.16683 8.70866C7.16683 8.34755 6.96197 8.07671 6.55225 7.89616C6.14252 7.7156 5.46544 7.58366 4.521 7.50033L4.66683 5.83366C6.09738 5.94477 7.14947 6.23296 7.82308 6.69824C8.49669 7.16352 8.8335 7.83366 8.8335 8.70866C8.8335 9.44477 8.56614 10.0212 8.03141 10.4378C7.49669 10.8545 6.7085 11.1045 5.66683 11.1878C4.77794 11.2573 4.11127 11.4205 3.66683 11.6774C3.22239 11.9344 3.00016 12.285 3.00016 12.7295C3.00016 13.2156 3.19461 13.5663 3.5835 13.7816C3.97239 13.9969 4.62516 14.1253 5.54183 14.167L5.4585 15.8337ZM11.2918 15.9795L7.85433 12.542L15.8127 4.58366C16.0904 4.30588 16.4203 4.16699 16.8022 4.16699C17.1842 4.16699 17.5141 4.30588 17.7918 4.58366L19.2502 6.04199C19.5279 6.31977 19.6668 6.64963 19.6668 7.03158C19.6668 7.41352 19.5279 7.74338 19.2502 8.02116L11.2918 15.9795ZM7.97933 16.667C7.74322 16.7225 7.53489 16.66 7.35433 16.4795C7.17377 16.2989 7.11127 16.0906 7.16683 15.8545L7.85433 12.542L11.2918 15.9795L7.97933 16.667Z" fill="white"/>
</g>
</svg>
