<svg width="91" height="90" viewBox="0 0 91 90" fill="none" xmlns="http://www.w3.org/2000/svg">
<circle cx="45.5" cy="45" r="45" fill="#F5F7F9"/>
<mask id="mask0_2402_58950" style="mask-type:alpha" maskUnits="userSpaceOnUse" x="0" y="0" width="91" height="90">
<circle cx="45.5" cy="45" r="45" fill="#D9D9D9"/>
</mask>
<g mask="url(#mask0_2402_58950)">
<mask id="mask1_2402_58950" style="mask-type:alpha" maskUnits="userSpaceOnUse" x="9" y="9" width="72" height="72">
<rect x="9" y="9" width="72" height="72" fill="#D9D9D9"/>
</mask>
<g mask="url(#mask1_2402_58950)">
<path d="M56.256 45.4653L52.372 41.5813L58.0593 35.8941L54.1059 31.9407L48.4187 37.628L44.5347 33.744L58.0593 20.2194C58.6141 19.6646 59.2268 19.26 59.8972 19.0057C60.5677 18.7514 61.2728 18.6242 62.0126 18.6242C62.7524 18.6242 63.4691 18.7629 64.1627 19.0404C64.8562 19.3178 65.4573 19.7339 65.966 20.2888L69.7806 24.1728C70.3354 24.6814 70.74 25.2825 70.9943 25.976C71.2486 26.6696 71.3758 27.3632 71.3758 28.0567C71.3758 28.7966 71.2486 29.5017 70.9943 30.1721C70.74 30.8426 70.3354 31.4552 69.7806 32.0101L56.256 45.4653ZM26.9874 63.0126H30.9407L44.4653 49.488L42.5233 47.4767L40.512 45.5347L26.9874 59.0593V63.0126ZM68.0467 73L48.4187 53.4414L33.2295 68.5612H21.4388V56.8398L36.628 41.6507L17 21.9533L20.9533 18L72 69.0467L68.0467 73ZM42.5233 47.4767L40.512 45.5347L44.4653 49.488L42.5233 47.4767Z" fill="#A1A2A8"/>
</g>
</g>
</svg>
