<svg width="18" height="18" viewBox="0 0 18 18" fill="none" xmlns="http://www.w3.org/2000/svg">
<mask id="mask0_2489_53430" style="mask-type:alpha" maskUnits="userSpaceOnUse" x="0" y="0" width="18" height="18">
<rect width="18" height="18" fill="#D9D9D9"/>
</mask>
<g mask="url(#mask0_2489_53430)">
<path d="M5.24998 12.0577C5.43844 12.0577 5.59614 11.9942 5.72306 11.8673C5.84998 11.7404 5.91343 11.5827 5.91343 11.3942C5.91343 11.2058 5.84998 11.0481 5.72306 10.9211C5.59614 10.7942 5.43844 10.7308 5.24998 10.7308C5.06152 10.7308 4.90383 10.7942 4.7769 10.9211C4.64999 11.0481 4.58653 11.2058 4.58653 11.3942C4.58653 11.5827 4.64999 11.7404 4.7769 11.8673C4.90383 11.9942 5.06152 12.0577 5.24998 12.0577ZM4.6875 9.83653H5.81246V5.94229H4.6875V9.83653ZM7.6875 11.0625H13.3125V9.9375H7.6875V11.0625ZM7.6875 8.06246H13.3125V6.9375H7.6875V8.06246ZM3.23078 14.625C2.85193 14.625 2.53125 14.4937 2.26875 14.2312C2.00625 13.9687 1.875 13.648 1.875 13.2692V4.73078C1.875 4.35193 2.00625 4.03125 2.26875 3.76875C2.53125 3.50625 2.85193 3.375 3.23078 3.375H14.7692C15.148 3.375 15.4687 3.50625 15.7312 3.76875C15.9937 4.03125 16.125 4.35193 16.125 4.73078V13.2692C16.125 13.648 15.9937 13.9687 15.7312 14.2312C15.4687 14.4937 15.148 14.625 14.7692 14.625H3.23078ZM3.23078 13.5H14.7692C14.8269 13.5 14.8798 13.4759 14.9279 13.4279C14.9759 13.3798 15 13.3269 15 13.2692V4.73078C15 4.67308 14.9759 4.62018 14.9279 4.57209C14.8798 4.52402 14.8269 4.49998 14.7692 4.49998H3.23078C3.17308 4.49998 3.12018 4.52402 3.07209 4.57209C3.02402 4.62018 2.99998 4.67308 2.99998 4.73078V13.2692C2.99998 13.3269 3.02402 13.3798 3.07209 13.4279C3.12018 13.4759 3.17308 13.5 3.23078 13.5Z" fill="#27338C"/>
</g>
</svg>
