<svg width="13" height="14" viewBox="0 0 13 14" fill="none" xmlns="http://www.w3.org/2000/svg">
<g id="icon-park-outline:door-handle">
<g id="Group">
<path id="Vector" d="M8.125 1.58594H2.16667C1.86751 1.58594 1.625 1.82845 1.625 2.1276V11.8776C1.625 12.1768 1.86751 12.4193 2.16667 12.4193H8.125C8.42415 12.4193 8.66667 12.1768 8.66667 11.8776V2.1276C8.66667 1.82845 8.42415 1.58594 8.125 1.58594Z" stroke="white" stroke-linecap="round" stroke-linejoin="round"/>
<path id="Vector_2" d="M3.79102 9.70833H6.49935M11.3743 5.91667V4.29167H6.22852C6.05799 4.06429 5.82024 3.89634 5.54895 3.8116C5.27766 3.72685 4.98659 3.72961 4.71696 3.81949C4.44733 3.90937 4.21281 4.0818 4.04663 4.31237C3.88044 4.54294 3.79102 4.81995 3.79102 5.10417C3.79102 5.38838 3.88044 5.66539 4.04663 5.89596C4.21281 6.12653 4.44733 6.29896 4.71696 6.38884C4.98659 6.47872 5.27766 6.48148 5.54895 6.39674C5.82024 6.31199 6.05799 6.14404 6.22852 5.91667H11.3743Z" stroke="white" stroke-linecap="round" stroke-linejoin="round"/>
</g>
</g>
</svg>
