<svg width="16" height="14" viewBox="0 0 16 14" fill="none" xmlns="http://www.w3.org/2000/svg">
<path d="M2.23078 13.3749C1.85193 13.3749 1.53125 13.2437 1.26875 12.9812C1.00625 12.7187 0.875 12.398 0.875 12.0191V4.23074C0.875 3.85189 1.00625 3.53121 1.26875 3.26871C1.53125 3.00621 1.85193 2.87496 2.23078 2.87496H5.375V1.60576C5.375 1.22692 5.50625 0.90625 5.76875 0.64375C6.03125 0.38125 6.35192 0.25 6.73077 0.25H9.26919C9.64804 0.25 9.96871 0.38125 10.2312 0.64375C10.4937 0.90625 10.625 1.22692 10.625 1.60576V2.87496H13.7692C14.148 2.87496 14.4687 3.00621 14.7312 3.26871C14.9937 3.53121 15.125 3.85189 15.125 4.23074V12.0191C15.125 12.398 14.9937 12.7187 14.7312 12.9812C14.4687 13.2437 14.148 13.3749 13.7692 13.3749H2.23078ZM2.23078 12.2499H13.7692C13.8269 12.2499 13.8798 12.2259 13.9279 12.1778C13.9759 12.1297 14 12.0768 14 12.0191V4.23074C14 4.17304 13.9759 4.12014 13.9279 4.07206C13.8798 4.02398 13.8269 3.99994 13.7692 3.99994H2.23078C2.17308 3.99994 2.12018 4.02398 2.07209 4.07206C2.02402 4.12014 1.99998 4.17304 1.99998 4.23074V12.0191C1.99998 12.0768 2.02402 12.1297 2.07209 12.1778C2.12018 12.2259 2.17308 12.2499 2.23078 12.2499ZM6.49998 2.87496H9.49998V1.60576C9.49998 1.54806 9.47594 1.49517 9.42787 1.44709C9.37978 1.39901 9.32689 1.37496 9.26919 1.37496H6.73077C6.67308 1.37496 6.62018 1.39901 6.57209 1.44709C6.52402 1.49517 6.49998 1.54806 6.49998 1.60576V2.87496Z" fill="#27338C"/>
</svg>
